<svg version="1.1" id="Layer_1" xmlns="http://www.w3.org/2000/svg" xmlns:xlink="http://www.w3.org/1999/xlink" x="0px" y="0px"
	 width="100%" viewBox="0 0 1024 800" enable-background="new 0 0 1024 800" xml:space="preserve">
<path fill="#000000" opacity="1.000000" stroke="none" 
	d="
M518.989136,165.772720 
	C522.260742,163.508270 525.607971,164.646606 528.746094,165.020218 
	C562.688965,169.061127 592.642395,182.340302 617.615845,205.645767 
	C641.093201,227.554977 656.208557,254.527557 663.340759,286.014984 
	C668.747437,309.884735 668.129395,333.618561 662.257935,357.134918 
	C656.114441,381.740936 644.434631,403.708374 627.310974,422.489471 
	C604.404846,447.612671 576.211060,463.730194 542.842102,470.599426 
	C536.155396,471.975891 529.391479,472.855408 522.596008,473.581757 
	C519.525940,473.909912 518.686096,472.743622 518.716064,470.071228 
	C518.888062,454.756042 518.930359,439.433044 518.943848,424.124695 
	C518.957886,408.150635 518.826904,392.160400 518.707642,376.177795 
	C518.658875,369.642578 518.714478,369.660553 525.157959,369.717834 
	C529.156921,369.753387 533.162048,369.852539 537.153992,369.681396 
	C540.415649,369.541565 541.557129,370.879547 541.551758,374.089478 
	C541.543030,379.319611 540.655273,384.634430 542.091614,389.831451 
	C554.198425,387.708435 573.959778,370.885284 578.253296,359.302673 
	C576.742981,357.404297 574.584961,358.166870 572.715515,358.159302 
	C556.219727,358.092377 539.722412,358.010590 523.228638,358.201294 
	C519.969971,358.238983 518.665161,357.424835 518.682251,354.135620 
	C518.755676,339.972290 518.753967,325.808258 518.690125,311.644836 
	C518.675964,308.497162 519.681091,307.424225 523.094788,307.447113 
	C552.744751,307.646118 582.396301,307.615326 612.047363,307.651520 
	C619.855957,307.661041 627.666809,307.778198 635.472107,307.621307 
	C638.959778,307.551239 640.085876,308.969635 640.197937,312.334747 
	C641.141357,340.656189 634.323730,366.986053 618.395081,390.360748 
	C600.835632,416.128632 576.813416,433.622437 546.602478,442.236969 
	C544.600586,442.807831 541.639465,442.475586 541.859741,447.149841 
	C571.273132,440.477203 595.300171,425.681335 613.858032,402.705292 
	C639.423523,371.053314 649.761169,334.819427 641.532837,294.557892 
	C630.263916,239.418289 595.743713,205.983978 542.525818,190.113922 
	C540.852173,193.931580 542.740601,194.348312 544.830017,194.970352 
	C562.564758,200.250061 578.999451,208.124939 593.307434,220.004608 
	C614.002991,237.187729 628.219727,258.643341 635.347717,284.666656 
	C636.621399,289.316711 637.656006,294.032074 638.915466,298.686310 
	C639.870972,302.217163 638.364624,303.835175 634.992493,303.807312 
	C620.856506,303.690308 606.721619,303.437012 592.585571,303.339111 
	C589.574097,303.318237 588.848267,301.383820 587.848877,299.126770 
	C585.322266,293.420502 583.967285,287.277161 580.953979,281.745789 
	C573.051697,267.239838 561.647156,256.442200 546.957031,249.029236 
	C546.069092,248.581146 545.132996,248.208435 544.185425,247.907501 
	C543.744385,247.767456 543.221985,247.883575 542.716614,247.883575 
	C540.852051,250.268829 541.392761,253.036667 541.390991,255.628296 
	C541.382751,267.951935 541.506592,280.275574 541.556458,292.599365 
	C541.582581,299.048187 541.289429,299.320312 534.844971,299.363251 
	C530.846130,299.389862 526.827271,299.171600 522.854675,299.505859 
	C519.631348,299.777130 518.698425,298.428680 518.701111,295.549561 
	C518.724365,270.555054 518.709656,245.560562 518.713562,220.566055 
	C518.713745,219.563202 518.770874,218.554901 519.872559,217.683228 
	C541.388367,220.576874 561.177795,227.828583 578.010925,242.329178 
	C589.183289,251.953369 597.658630,263.516144 604.005310,276.737976 
	C604.982239,278.773315 605.687439,281.239319 608.841064,280.348450 
	C609.638489,278.581085 608.746399,277.227386 608.121521,275.960876 
	C591.704041,242.686142 565.535706,222.060699 528.852356,215.362183 
	C518.753845,213.518143 518.676880,213.828873 518.701538,203.662399 
	C518.731873,191.168427 518.800232,178.674545 518.989136,165.772720 
M595.199463,376.627960 
	C590.480652,382.292053 586.484680,388.390137 580.767334,393.416779 
	C565.159058,407.139435 547.232117,415.413971 527.005981,419.189209 
	C524.980591,419.567261 522.594604,419.389923 522.355530,423.120300 
	C547.826843,420.484314 569.168030,410.254913 586.828674,392.332458 
	C603.618225,375.294006 613.266968,354.796570 616.625977,330.842407 
	C591.355286,330.842407 566.752869,330.842407 541.606201,330.842407 
	C543.531738,335.483276 547.003906,333.945374 549.565552,333.964447 
	C568.887451,334.108704 588.210999,334.072784 607.533752,334.007080 
	C611.300354,333.994263 613.263245,334.861664 611.906799,339.228973 
	C607.897156,352.138824 603.624084,364.907471 595.199463,376.627960 
z"/>
<path fill="#000000" opacity="1.000000" stroke="none" 
	d="
M462.608643,226.607224 
	C449.567657,233.946732 438.216827,242.718597 429.466614,254.592422 
	C427.200897,257.666992 424.940826,260.839203 424.237213,264.567780 
	C423.703827,267.394196 420.788635,266.867523 419.658600,269.110138 
	C416.571381,275.236938 413.938995,281.500854 411.793915,287.993164 
	C411.376526,289.256409 410.807800,290.775391 412.553894,291.396606 
	C414.210236,291.985870 414.910461,290.595642 415.417725,289.328125 
	C415.849640,288.248932 416.123352,287.107544 416.502838,286.006042 
	C425.014221,261.302094 441.112061,243.126328 463.715546,230.250732 
	C475.653534,223.450516 488.719482,220.677567 501.865143,217.866180 
	C504.737183,217.251968 505.995514,218.348740 506.005707,221.124405 
	C506.056335,234.944016 506.004211,248.764664 506.168884,262.582794 
	C506.220612,266.922028 503.655975,268.272675 500.135620,269.158478 
	C488.417236,272.107239 478.651855,278.209778 471.499084,287.985535 
	C456.630554,308.306488 457.382599,333.313049 473.619781,352.525787 
	C480.762207,360.977112 489.855804,366.763367 500.940918,368.769775 
	C504.529694,369.419342 506.167755,371.070068 506.089478,374.754303 
	C505.994019,379.249207 506.081543,383.754547 506.279663,388.247040 
	C506.436249,391.797791 505.144440,392.846985 501.514740,392.431976 
	C486.731934,390.741730 474.022369,384.354645 463.232117,374.616028 
	C440.211121,353.838654 433.332031,327.990356 440.776978,298.101013 
	C441.055756,296.981750 441.292480,295.848511 441.466309,294.709198 
	C441.506683,294.444550 441.208374,294.128204 440.970184,293.639008 
	C438.165680,292.964539 437.807617,295.264862 437.307220,297.028992 
	C431.653442,316.961884 433.317535,336.219086 442.933289,354.652283 
	C449.704132,367.631897 459.236053,378.149872 471.836548,385.656006 
	C480.739716,390.959595 490.386261,394.585999 500.633331,396.250916 
	C504.763336,396.921936 506.199158,398.789917 506.141449,402.882507 
	C505.958099,415.877380 505.976898,428.876862 506.086700,441.873108 
	C506.124573,446.354370 504.724884,447.314819 500.081940,446.660919 
	C485.802094,444.649841 472.011078,441.250488 458.860687,435.258484 
	C439.074738,426.242950 422.824799,412.941254 409.648315,395.670593 
	C401.279236,384.701050 394.871429,372.636658 390.454346,359.734711 
	C387.297363,350.513367 385.734131,340.733185 384.570923,330.930145 
	C383.241272,319.724915 384.337677,308.740692 385.812317,297.703186 
	C386.007172,296.244720 387.309326,294.025482 384.755646,293.578674 
	C382.470245,293.178802 382.389862,295.424988 382.090515,297.021820 
	C380.860443,303.583801 380.361938,310.210022 380.239899,316.883728 
	C379.954559,332.484497 382.320496,347.668915 387.629425,362.321167 
	C395.168854,383.129333 406.870819,401.018066 423.386414,416.115234 
	C440.323456,431.597626 459.732635,441.726868 481.755463,447.175995 
	C488.028198,448.728088 494.513000,449.506012 500.941437,450.313599 
	C504.630310,450.777039 506.243530,452.356812 506.073029,456.117340 
	C505.884491,460.275116 505.945496,464.449585 506.043701,468.613342 
	C506.132141,472.363617 504.954041,473.891113 500.741516,473.499573 
	C462.671692,469.960876 429.688477,455.388275 402.558624,428.292572 
	C380.544189,406.305725 366.994232,379.861603 360.178619,349.430634 
	C356.130646,331.356995 355.531891,313.243164 358.505829,295.494690 
	C362.020386,274.519653 369.204346,254.380981 381.045410,236.211533 
	C405.036346,199.398804 438.596344,176.584259 481.329254,167.147949 
	C488.122253,165.647949 495.063812,164.604813 502.105865,164.480087 
	C504.773956,164.432831 505.880890,165.404602 505.887054,167.813156 
	C505.923401,181.976120 505.926361,196.139267 505.888824,210.302216 
	C505.880737,213.351974 503.666199,213.954575 501.177734,214.385971 
	C491.691406,216.030411 482.174133,217.613266 473.259491,221.485229 
	C469.754272,223.007675 466.339325,224.737930 462.608643,226.607224 
M418.097534,357.090485 
	C417.942657,356.443634 417.848206,355.775055 417.624115,355.153107 
	C410.759705,336.101440 408.744537,316.707489 413.435272,296.823761 
	C413.696167,295.717896 413.992310,294.495087 412.699860,293.709412 
	C405.096710,297.351379 405.289917,332.770233 413.014160,353.618591 
	C424.645691,385.012970 464.888153,422.442017 482.409973,417.819733 
	C482.144012,414.734833 479.430542,414.626831 477.453094,413.872650 
	C469.206787,410.727600 461.217590,407.057465 454.047028,401.876343 
	C438.194092,390.421753 426.469696,375.581665 418.097534,357.090485 
M455.567688,200.308151 
	C454.170166,200.844482 452.704132,201.249374 451.385315,201.936707 
	C427.848785,214.203339 409.833923,232.163635 396.743835,255.152512 
	C396.078186,256.321472 394.743683,257.582947 396.043335,259.277252 
	C398.907654,259.727692 399.556244,257.344482 400.650269,255.610016 
	C407.928955,244.070648 415.943726,233.200363 426.190857,223.985092 
	C441.856537,209.896957 460.053101,200.690033 480.045624,194.681488 
	C481.448334,194.259918 482.613556,193.862823 481.890320,191.146484 
	C472.747192,192.428711 464.282593,195.669464 455.567688,200.308151 
M480.251953,251.859802 
	C481.571930,251.092590 483.229095,250.223343 482.146362,248.460953 
	C481.013977,246.617813 479.449493,248.057220 478.220367,248.678955 
	C461.149323,257.314056 448.597900,270.316986 440.695923,287.756042 
	C440.186646,288.880005 439.222321,290.094482 440.322815,291.463409 
	C442.547668,292.205109 443.263611,290.652161 443.985077,289.096008 
	C451.599823,272.671753 463.255157,260.152496 480.251953,251.859802 
M395.082153,261.233917 
	C393.510895,261.427216 392.855469,262.601715 392.398560,263.878387 
	C389.668579,271.506348 385.761414,278.711334 384.174225,286.750061 
	C383.846741,288.408691 382.163422,290.660614 384.773712,291.400604 
	C387.169434,292.079803 387.593811,289.551666 387.896484,287.796692 
	C389.319244,279.547058 392.574768,271.963837 396.108917,264.463470 
	C396.606323,263.407806 397.826538,262.044556 395.082153,261.233917 
z"/>
<path fill="#000000" opacity="1.000000" stroke="none" 
	d="
M439.857971,567.848267 
	C439.565033,568.494812 439.441895,568.803833 439.319672,569.113281 
	C436.283295,576.799988 431.154785,579.460938 423.216858,577.511719 
	C421.077026,576.986267 420.564362,575.148926 419.875031,573.490845 
	C418.095856,569.211243 416.733917,564.743652 413.195770,560.818420 
	C413.195770,564.641846 413.068085,568.470764 413.232788,572.287109 
	C413.388184,575.887756 411.984253,577.595581 408.287994,577.304504 
	C406.633026,577.174133 404.960999,577.223877 403.297485,577.246582 
	C400.819031,577.280457 399.652924,576.122131 399.656036,573.614624 
	C399.674408,558.816162 399.640259,544.017578 399.688416,529.219299 
	C399.691467,528.292603 399.978516,527.114807 400.582703,526.484680 
	C403.578461,523.360352 415.177979,525.792847 416.915497,529.837219 
	C420.499176,538.178650 424.055969,546.531738 427.657440,554.865417 
	C427.828369,555.260925 428.323944,555.516113 428.981659,556.128296 
	C432.357758,550.593811 434.129486,544.547729 436.753357,538.907776 
	C437.313873,537.702881 437.751953,536.441284 438.255310,535.209412 
	C442.689117,524.358582 442.684204,524.443787 454.274414,525.194153 
	C457.051453,525.373962 458.201996,526.457825 458.198395,529.112427 
	C458.178314,543.919861 458.172974,558.727295 458.164703,573.534729 
	C458.163025,576.515564 456.711334,577.748901 453.742401,577.377380 
	C452.428894,577.213013 451.069794,577.175049 449.754425,577.307922 
	C445.751740,577.712219 444.430908,575.815308 444.637817,572.025024 
	C444.843811,568.251038 444.682953,564.457092 444.682953,559.667114 
	C441.665253,562.298889 441.410126,565.243774 439.857971,567.848267 
z"/>
<path fill="#000000" opacity="1.000000" stroke="none" 
	d="
M304.157257,539.053833 
	C301.326447,540.870972 298.788727,542.458679 296.241150,544.030334 
	C295.213013,544.664612 294.219055,545.375793 294.472656,546.749451 
	C294.777435,548.400269 296.137329,548.663391 297.526398,548.703308 
	C300.353821,548.784790 303.183594,548.791260 306.010193,548.891174 
	C308.249084,548.970215 309.862854,549.712646 309.806000,552.412048 
	C309.655579,559.550232 309.556519,566.689880 309.508759,573.829407 
	C309.495911,575.750183 308.962158,577.476257 306.843445,577.163513 
	C297.147552,575.732239 287.507721,579.184814 277.903046,577.609619 
	C261.699768,574.952148 253.589767,560.496765 256.037415,546.184570 
	C258.902588,529.431030 275.678375,522.414246 288.638367,525.054382 
	C294.634705,526.276001 299.278839,529.550232 303.158325,534.053223 
	C304.272430,535.346375 305.981903,536.708069 304.157257,539.053833 
M290.010590,548.672607 
	C294.665070,547.061340 293.205475,544.193909 291.063202,541.823975 
	C287.109070,537.449524 279.494720,537.365356 274.675354,541.311218 
	C269.823364,545.283752 268.578430,552.696350 271.866150,558.038391 
	C275.295685,563.610840 281.285492,565.372375 287.449554,562.407532 
	C281.011292,560.866028 282.864044,555.570679 282.879761,551.710205 
	C282.894714,548.036194 286.682037,548.953674 290.010590,548.672607 
z"/>
<path fill="#000000" opacity="1.000000" stroke="none" 
	d="
M734.826355,562.549805 
	C724.931213,582.451904 699.075439,583.105652 687.574951,565.754028 
	C675.236572,547.138000 689.895996,526.142456 708.025940,524.587585 
	C728.953735,522.792786 743.481506,545.114868 734.826355,562.549805 
M709.687378,538.361206 
	C708.716309,538.574707 707.715576,538.699951 706.778931,539.015686 
	C699.639343,541.422180 696.315308,547.372620 698.024414,554.616150 
	C699.398132,560.438110 705.867432,565.129089 711.474548,564.368896 
	C718.358643,563.435669 722.829102,558.068542 722.778137,550.798035 
	C722.728821,543.748108 718.952515,539.929993 709.687378,538.361206 
z"/>
<path fill="#000000" opacity="1.000000" stroke="none" 
	d="
M542.189087,526.942932 
	C549.757202,523.520020 557.025208,523.574463 564.266418,526.644836 
	C565.931946,527.351013 567.621216,528.232849 568.966187,529.413696 
	C571.603333,531.728821 575.046997,534.896362 573.557312,538.088623 
	C571.909119,541.620605 566.864380,541.831970 563.143005,543.090942 
	C561.888062,543.515503 561.224670,542.078857 560.402039,541.277222 
	C556.722351,537.691650 552.722778,539.330811 548.159119,539.988892 
	C550.313904,544.443909 554.306458,543.325928 557.084106,544.629089 
	C560.057312,546.024048 563.536377,546.316406 566.563721,547.624512 
	C576.276001,551.821411 578.631409,563.859497 571.421021,571.651794 
	C562.453186,581.343384 541.873901,580.104492 534.486389,569.428345 
	C531.006897,564.399902 531.515076,563.101868 537.157227,560.842773 
	C541.682922,559.030579 545.653320,557.765869 549.674805,562.309448 
	C551.566956,564.447327 555.005127,564.802246 558.122925,563.884705 
	C559.447998,563.494629 560.902588,563.138428 560.944946,561.533142 
	C560.987305,559.927612 559.574829,559.281921 558.240662,559.057068 
	C553.167358,558.202209 548.227539,556.843445 543.371155,555.195129 
	C534.221924,552.089783 530.413696,542.594543 534.807922,533.941406 
	C536.364990,530.875244 538.739380,528.603027 542.189087,526.942932 
z"/>
<path fill="#000000" opacity="1.000000" stroke="none" 
	d="
M331.569519,565.663452 
	C336.301056,553.527893 341.182648,541.854980 345.351959,529.933044 
	C347.619232,523.450073 352.618958,525.543945 356.906799,524.971497 
	C360.825378,524.448242 362.493713,526.727905 363.747681,530.047241 
	C368.982452,543.903931 374.386871,557.696472 379.690063,571.527527 
	C380.266357,573.030518 381.256409,574.509949 380.509735,576.540039 
	C376.770203,577.937622 372.781586,577.266663 368.871246,577.094055 
	C366.390594,576.984619 365.890259,574.664490 365.291992,572.803650 
	C364.093597,569.075928 362.223053,566.666748 357.743591,567.576416 
	C356.162354,567.897522 354.405884,567.647339 352.775299,567.379028 
	C347.874359,566.572571 344.755951,568.339478 343.661407,573.309998 
	C342.961273,576.489502 340.871490,577.623047 337.778320,577.308777 
	C334.698364,576.995789 331.484558,577.985352 328.353973,576.418335 
	C327.997986,572.491760 330.578857,569.499329 331.569519,565.663452 
M354.529022,554.913269 
	C358.283661,552.865295 354.969055,550.954773 354.197205,548.946655 
	C355.386658,551.054932 350.067169,552.627197 354.529022,554.913269 
z"/>
<path fill="#000000" opacity="1.000000" stroke="none" 
	d="
M490.654449,538.741333 
	C489.292328,543.550903 491.168854,545.294189 495.575684,545.020935 
	C497.895844,544.877075 500.234894,545.028809 502.565247,545.060608 
	C508.636871,545.143494 511.731689,550.214172 509.109192,555.687317 
	C508.273224,557.431946 506.742340,557.301270 505.278473,557.324463 
	C501.616760,557.382446 497.952820,557.421204 494.291718,557.357239 
	C491.786438,557.313477 490.106201,557.900879 490.081024,560.895447 
	C490.055359,563.943848 491.516510,565.013062 494.378113,564.981140 
	C499.204773,564.927246 504.039856,565.188477 508.858643,564.996765 
	C513.678162,564.804871 514.171448,567.589417 514.131165,571.386414 
	C514.092590,575.018005 513.535767,577.476135 508.984589,577.369690 
	C499.671692,577.151917 490.348663,577.187012 481.033447,577.338989 
	C477.350250,577.399109 475.953979,575.894348 475.968323,572.331848 
	C476.025330,558.182800 475.990967,544.033142 475.952148,529.883911 
	C475.943146,526.601135 477.334991,524.982605 480.753448,525.040588 
	C490.402466,525.204224 500.053833,525.362854 509.703278,525.316406 
	C514.844055,525.291626 513.909607,528.849182 514.024597,531.904785 
	C514.141907,535.020386 513.749084,537.322449 509.586578,537.441345 
	C503.346008,537.619507 497.002258,536.257568 490.654449,538.741333 
z"/>
<path fill="#000000" opacity="1.000000" stroke="none" 
	d="
M620.874878,558.998535 
	C620.873535,549.194397 621.056152,539.884705 620.799500,530.587219 
	C620.655884,525.383484 623.715759,525.049133 627.537720,525.093994 
	C631.307617,525.138306 634.986328,524.828552 634.932495,530.458435 
	C634.799377,544.383362 634.842651,558.311401 634.975830,572.236694 
	C635.013916,576.219971 633.229797,577.335876 629.513550,577.351318 
	C620.964722,577.386841 620.960144,577.525574 620.897583,568.970093 
	C620.874451,565.812927 620.881836,562.655457 620.874878,558.998535 
z"/>
<path fill="#000000" opacity="1.000000" stroke="none" 
	d="
M656.060913,576.911133 
	C652.790222,574.468079 652.181152,571.611694 654.074829,568.482361 
	C655.523865,566.087891 657.947388,565.430115 660.570679,566.199524 
	C663.592590,567.085815 664.537292,569.565491 664.433960,572.386353 
	C664.298645,576.081055 661.378540,577.702148 656.060913,576.911133 
z"/>
</svg>